<svg width="10" height="17" viewBox="0 0 10 17" fill="none" xmlns="http://www.w3.org/2000/svg">
<path d="M9.38369 16.4549C9.61803 16.2205 9.74967 15.9026 9.74967 15.5712C9.74967 15.2397 9.61803 14.9218 9.38369 14.6874L3.19619 8.49994L9.38369 2.31244C9.61139 2.07669 9.73738 1.76093 9.73453 1.43319C9.73168 1.10544 9.60022 0.791925 9.36846 0.560165C9.1367 0.328405 8.82318 0.196945 8.49544 0.194098C8.16769 0.19125 7.85194 0.317242 7.61619 0.544941L0.544938 7.61619C0.310599 7.8506 0.178955 8.16848 0.178955 8.49994C0.178955 8.8314 0.310599 9.14928 0.544938 9.38369L7.61619 16.4549C7.8506 16.6893 8.16848 16.8209 8.49994 16.8209C8.83139 16.8209 9.14928 16.6893 9.38369 16.4549Z" fill="white"/>
</svg>
