<svg width="31" height="31" viewBox="0 0 31 31" fill="none" xmlns="http://www.w3.org/2000/svg">
<path d="M15.509 20.4656C17.5658 20.4656 19.2332 18.7983 19.2332 16.7415C19.2332 14.6847 17.5658 13.0173 15.509 13.0173C13.4522 13.0173 11.7849 14.6847 11.7849 16.7415C11.7849 18.7983 13.4522 20.4656 15.509 20.4656Z" stroke="white" stroke-width="2.48277"/>
<path d="M12.7507 26.6726H18.2674C22.1417 26.6726 24.0795 26.6726 25.4711 25.7602C26.0717 25.3669 26.5889 24.859 26.9931 24.2656C27.9229 22.9001 27.9229 20.997 27.9229 17.1934C27.9229 13.3898 27.9229 11.4868 26.9931 10.1212C26.5889 9.52785 26.0717 9.01996 25.4711 8.62661C24.5773 8.03944 23.4576 7.82964 21.7432 7.75516C20.9252 7.75516 20.2213 7.14688 20.0612 6.3586C19.9388 5.78119 19.6208 5.26374 19.161 4.89371C18.7011 4.52367 18.1277 4.32373 17.5374 4.32769H13.4806C12.2541 4.32769 11.1977 5.17804 10.9568 6.3586C10.7967 7.14688 10.0928 7.75516 9.27477 7.75516C7.56166 7.82964 6.44193 8.04068 5.54689 8.62661C4.94673 9.02008 4.42998 9.52797 4.02619 10.1212C3.09515 11.4868 3.09515 13.3886 3.09515 17.1934C3.09515 20.9983 3.09515 22.8988 4.02495 24.2656C4.42716 24.8565 4.94358 25.3642 5.54689 25.7602C6.93848 26.6726 8.87629 26.6726 12.7507 26.6726Z" stroke="white" stroke-width="2.48277"/>
<path d="M24.1987 13.0173H22.9573" stroke="white" stroke-width="2.48277" stroke-linecap="round"/>
</svg>
