<svg width="28" height="28" viewBox="0 0 28 28" fill="none" xmlns="http://www.w3.org/2000/svg">
<path d="M5.14185 15.2698C5.84319 15.2698 6.41175 14.7012 6.41175 13.9999C6.41175 13.2985 5.84319 12.73 5.14185 12.73C4.4405 12.73 3.87195 13.2985 3.87195 13.9999C3.87195 14.7012 4.4405 15.2698 5.14185 15.2698Z" stroke="white" stroke-width="2.5398" stroke-linecap="round" stroke-linejoin="round"/>
<path d="M14.4544 15.2698C15.1558 15.2698 15.7243 14.7012 15.7243 13.9999C15.7243 13.2985 15.1558 12.73 14.4544 12.73C13.7531 12.73 13.1845 13.2985 13.1845 13.9999C13.1845 14.7012 13.7531 15.2698 14.4544 15.2698Z" stroke="white" stroke-width="2.5398" stroke-linecap="round" stroke-linejoin="round"/>
<path d="M23.767 15.2698C24.4684 15.2698 25.0369 14.7012 25.0369 13.9999C25.0369 13.2985 24.4684 12.73 23.767 12.73C23.0657 12.73 22.4971 13.2985 22.4971 13.9999C22.4971 14.7012 23.0657 15.2698 23.767 15.2698Z" stroke="white" stroke-width="2.5398" stroke-linecap="round" stroke-linejoin="round"/>
</svg>
