<svg width="19" height="24" viewBox="0 0 19 24" fill="none" xmlns="http://www.w3.org/2000/svg">
<path d="M8.27623 4.16209C8.10812 3.70443 7.77127 3.32844 7.33476 3.11124C6.89825 2.89405 6.39518 2.85211 5.92874 2.99403C3.71759 3.67578 2.17229 5.57331 2.50408 7.76855C2.87744 10.2044 3.7029 12.549 4.93793 14.6815C6.16157 16.8083 7.76616 18.6918 9.67154 20.2378C11.385 21.624 13.7893 21.2422 15.4846 19.6515C15.8412 19.3168 16.0576 18.8593 16.09 18.3713C16.1225 17.8833 15.9687 17.4012 15.6596 17.0222L14.4461 15.5382C14.203 15.2398 13.8759 15.0213 13.5071 14.9111C13.1384 14.8009 12.745 14.804 12.3781 14.9201L9.57837 15.8064L9.08978 15.3019C8.47443 14.6632 7.93597 13.9547 7.4854 13.1907C7.04904 12.4177 6.70867 11.5942 6.47186 10.7387L6.28325 10.0683L8.44212 8.07988C8.72776 7.81589 8.92814 7.47268 9.01761 7.09416C9.10708 6.71564 9.08157 6.31903 8.94434 5.95509L8.27623 4.16209ZM5.26062 0.821516C6.28132 0.509224 7.38281 0.599105 8.33938 1.07274C9.29595 1.54638 10.0352 2.36791 10.4056 3.36899L11.0714 5.15972C11.3661 5.94632 11.4197 6.80288 11.2254 7.62008C11.0311 8.43728 10.5977 9.17806 9.9806 9.7479L8.86708 10.7728C9.01025 11.1682 9.20341 11.6204 9.45338 12.059C9.70336 12.4908 9.99424 12.8839 10.2601 13.2044L11.6918 12.7499C12.4922 12.4972 13.35 12.4905 14.1542 12.7308C14.9585 12.971 15.6721 13.4471 16.2027 14.0975L17.4162 15.5814C18.0906 16.4061 18.4268 17.4561 18.3568 18.5191C18.2867 19.5822 17.8158 20.579 17.039 21.3081C14.7801 23.4283 11.0919 24.3078 8.24441 22.0035C6.12245 20.2824 4.3353 18.1856 2.97221 15.8177C1.59416 13.4393 0.673117 10.8242 0.256575 8.10715C-0.288825 4.48706 2.30864 1.73052 5.26062 0.823789" fill="white"/>
</svg>
