<svg width="34" height="33" viewBox="0 0 34 33" fill="none" xmlns="http://www.w3.org/2000/svg">
<rect x="0.964558" y="0.693684" width="31.8641" height="31.6124" rx="15.8062" stroke="white" stroke-width="1.11784"/>
<path d="M16.8954 19.63C18.9737 19.63 20.6513 17.9524 20.6513 15.8741V8.36225C20.6513 6.28397 18.9737 4.60632 16.8954 4.60632C14.8171 4.60632 13.1394 6.28397 13.1394 8.36225V15.8741C13.1394 17.9524 14.8171 19.63 16.8954 19.63ZM24.2946 15.8741C23.6811 15.8741 23.1678 16.3248 23.0676 16.9383C22.5543 19.8804 19.9878 22.134 16.8954 22.134C13.803 22.134 11.2364 19.8804 10.7231 16.9383C10.6785 16.644 10.5305 16.3753 10.3056 16.1803C10.0808 15.9852 9.79382 15.8767 9.4962 15.8741C8.73249 15.8741 8.13154 16.5502 8.24422 17.3014C8.85769 21.0573 11.8624 23.9994 15.6434 24.5378V27.1419C15.6434 27.8305 16.2068 28.3939 16.8954 28.3939C17.584 28.3939 18.1474 27.8305 18.1474 27.1419V24.5378C19.9899 24.2752 21.7007 23.4319 23.0313 22.1306C24.3619 20.8293 25.243 19.1376 25.5465 17.3014C25.6717 16.5502 25.0583 15.8741 24.2946 15.8741Z" fill="white"/>
</svg>
